<?xml version="1.0" encoding="UTF-8" standalone="no"?>
<!-- Uploaded to: SVG Repo, www.svgrepo.com, Generator: SVG Repo Mixer Tools -->

<svg
   width="450"
   height="750"
   viewBox="0 0 288 480"
   version="1.1"
   id="svg1"
   xmlns="http://www.w3.org/2000/svg"
   xmlns:svg="http://www.w3.org/2000/svg">
  <defs
     id="defs1" />
  <path
     fill="#000000"
     d="M 128,0 0,256 72.8,309 127.8,271.9 80,240 Z m 32,0 48,240 -144,96 -64,48 144,96 144,-96 -64,-48 -8.2,-5.4 -56.5,41.2 16.7,12.2 -32,32 -32,-32 176,-128 z"
     id="path1" />
  <path
     style="fill:#ffffff;stroke-width:0.641811"
     d="M 72.550803,431.92013 C 33.429965,405.83978 1.363072,384.28489 1.2910336,384.02036 1.2190016,383.75585 16.069517,372.40008 34.292173,358.78534 65.318086,335.60486 71.894989,331.05259 137.75219,287.17436 c 38.68035,-25.7713 70.32791,-47.21894 70.32791,-47.66141 0,-0.44249 -10.52516,-53.42581 -23.38924,-117.74073 C 171.82678,57.457293 161.31758,4.5453907 161.33708,4.1902112 161.3566,3.8350317 189.7762,60.31129 224.4918,129.69301 c 34.71559,69.38172 63.03105,126.22058 62.92324,126.30859 -0.10781,0.088 -39.55722,28.77064 -87.66535,63.73919 -48.10814,34.96854 -87.54197,63.77435 -87.63075,64.01291 -0.0888,0.23855 7.04816,7.63897 15.85983,16.44535 L 144,416.21066 160.02003,400.20025 c 8.81101,-8.80573 16.02002,-16.16001 16.02002,-16.34286 0,-0.18285 -3.58397,-2.92444 -7.96438,-6.09242 -6.05618,-4.37993 -7.78339,-5.93652 -7.20901,-6.49686 1.21651,-1.18677 53.78078,-39.41453 54.66005,-39.75194 0.43985,-0.16878 2.62089,0.92643 4.84677,2.43381 5.82196,3.94267 66.17083,49.24594 66.38005,49.8308 0.15476,0.43266 -141.95577,95.55856 -142.75649,95.55829 -0.1746,-6e-5 -32.3254,-21.33858 -71.446237,-47.41894 z"
     id="path2" />
  <path
     style="fill:#ffffff;stroke-width:0.641811"
     d="M 37.584224,282.88595 C 18.399757,268.91244 2.1819968,257.11228 1.5447552,256.66339 0.4729792,255.9084 5.1175424,246.39114 63.506797,129.69582 98.223162,60.312557 126.64354,3.832791 126.66319,4.1852314 126.68284,4.5376723 116.15342,57.551635 103.26449,121.99404 90.375558,186.43643 79.958957,239.49789 80.11648,239.9084 c 0.15753,0.4105 10.695392,7.66388 23.41748,16.11861 12.7221,8.45473 23.13858,15.55853 23.14775,15.78621 0.0174,0.43328 -51.831675,35.56391 -53.346529,36.14521 C 72.844864,308.14659 57.24,297.20275 37.584224,282.88595 Z"
     id="path3" />
</svg>
